<?xml version="1.0" encoding="UTF-8"?>
<svg version="1.1" xmlns="http://www.w3.org/2000/svg" width="1024" height="1024">
<path d="M0 0 C337.92 0 675.84 0 1024 0 C1024 337.92 1024 675.84 1024 1024 C686.08 1024 348.16 1024 0 1024 C0 686.08 0 348.16 0 0 Z " fill="#000000" transform="translate(0,0)"/>
<path d="M0 0 C0.24683371 11.18900695 -0.52904847 22.15713437 -1.49609375 33.29296875 C-1.65123317 35.13311353 -1.80576684 36.97330946 -1.95973206 38.81355286 C-2.36378447 43.62832569 -2.77423513 48.44252844 -3.18664551 53.2565918 C-3.84422163 60.93951278 -4.49394184 68.62309119 -5.13984871 76.30700111 C-5.36356344 78.95387414 -5.59125874 81.60038103 -5.81944275 84.24687195 C-6.50750389 92.32774991 -7.09785644 100.39572854 -7.47680664 108.49731445 C-7.82087136 115.76610046 -8.44543982 122.97405646 -9.20578003 130.21023846 C-10.29836478 140.6687381 -11.09321272 151.14981841 -11.91015625 161.6328125 C-12.08413673 163.84798161 -12.25824735 166.0631405 -12.43247986 168.27828979 C-12.79434303 172.88512634 -13.15469334 177.49207792 -13.51391602 182.09912109 C-13.97048319 187.9531209 -14.43081572 193.80681738 -14.89228153 199.66043282 C-15.25155102 204.22297542 -15.60883391 208.785672 -15.96554375 213.34841537 C-16.13437167 215.50505081 -16.30378278 217.66164069 -16.47383308 219.81818008 C-17.47563993 232.53920955 -18.36086229 245.25531575 -19 258 C-18.20123695 257.79781105 -18.20123695 257.79781105 -17.38633728 257.59153748 C28.15183658 246.07130822 28.15183658 246.07130822 47.3125 241.75 C49.21044312 241.31965454 49.21044312 241.31965454 51.14672852 240.88061523 C59.59967429 239 59.59967429 239 63 239 C62.43873393 253.26937863 61.58801335 267.48409182 60.40625 281.71484375 C60.25284996 283.59474925 60.09973952 285.47467841 59.94689941 287.35462952 C59.6299714 291.24272858 59.31044196 295.13060118 58.98876953 299.01831055 C58.57773816 303.98717522 58.17218392 308.95646864 57.76837921 313.92592525 C57.45436494 317.78570886 57.13815396 321.64530993 56.82121277 325.5048542 C56.67078757 327.33835115 56.52088669 329.17189119 56.37153625 331.005476 C56.16323614 333.55713595 55.95213071 336.10854859 55.74023438 338.65991211 C55.67994553 339.4043457 55.61965668 340.1487793 55.55754089 340.91577148 C55.18900843 345.3099919 54.66364587 349.64320594 54 354 C49.98743867 352.75206369 46.38267961 351.28088772 42.69140625 349.27734375 C41.70333984 348.74262451 40.71527344 348.20790527 39.69726562 347.65698242 C38.14555664 346.80583862 38.14555664 346.80583862 36.5625 345.9375 C35.50095703 345.35911377 34.43941406 344.78072754 33.34570312 344.18481445 C25.0995539 339.66557921 16.99062523 334.9557243 9 330 C9.46148437 330.92296875 9.92296875 331.8459375 10.3984375 332.796875 C10.70765137 333.4153833 11.01686523 334.0338916 11.33544922 334.67114258 C12.04254691 336.0851719 12.74991381 337.49906663 13.45751953 338.9128418 C15.44662647 342.88806388 17.43081509 346.86562058 19.40625 350.84765625 C26.05145056 364.2241008 32.93375698 377.46436945 40.015625 390.61474609 C42.9933604 396.17834062 45.90398153 401.76084285 48.70703125 407.4140625 C52.57076667 415.17193944 56.50979729 422.88931191 60.48217773 430.59204102 C61.56719529 432.69660726 62.64988379 434.80236063 63.73242188 436.90820312 C68.06436486 445.32250155 72.47857167 453.68582914 77 462 C79.61811916 458.8148048 81.9738348 455.60966622 84.14453125 452.10546875 C85.02467896 450.69044067 85.02467896 450.69044067 85.92260742 449.24682617 C86.85810425 447.73245972 86.85810425 447.73245972 87.8125 446.1875 C89.1587844 444.02078998 90.50514061 441.85412458 91.8515625 439.6875 C92.88265137 438.02460937 92.88265137 438.02460937 93.93457031 436.328125 C97.17440825 431.10762018 100.43055673 425.8973444 103.6875 420.6875 C104.31309814 419.68614014 104.93869629 418.68478027 105.58325195 417.65307617 C109.85015171 410.82704146 114.14097195 404.01654051 118.4465332 397.21484375 C122.44800089 390.88811793 126.41303263 384.53901626 130.375 378.1875 C135.39281224 370.15152269 140.42720953 362.12640471 145.5 354.125 C146.05091309 353.25254639 146.60182617 352.38009277 147.16943359 351.48120117 C150.94909538 345.53461726 154.91612991 339.74160296 159 334 C144.50441015 339.26103338 130.25986488 345.13768066 116 351 C115 349 115 349 115.79760742 346.40332031 C116.44499878 344.75734863 116.44499878 344.75734863 117.10546875 343.078125 C117.34477615 342.46402771 117.58408356 341.84993042 117.8306427 341.21722412 C118.60909961 339.22525584 119.39819181 337.23768984 120.1875 335.25 C120.66380859 334.03183594 121.14011719 332.81367187 121.63085938 331.55859375 C127.05064815 317.7171766 132.61884028 303.93345315 138.1452446 290.13433075 C139.59578749 286.51231409 141.04606333 282.89019051 142.49633789 279.26806641 C142.7930369 278.52704902 143.08973591 277.78603163 143.3954258 277.02255917 C146.91006602 268.24445244 150.4241131 259.46610843 153.9375 250.6875 C154.27651211 249.84047138 154.61552422 248.99344276 154.96480942 248.12074661 C163.14224194 227.68837705 171.30672426 207.25096842 179.4296875 186.796875 C179.76609568 185.94979792 180.10250385 185.10272083 180.44910622 184.22997475 C183.6804704 176.09258272 186.90981722 167.95439305 190.13589859 159.81490517 C191.3111762 156.85000329 192.48712751 153.88536886 193.66316605 150.92076874 C194.4614404 148.90753586 195.25862757 146.89387495 196.05575562 144.88018799 C198.30053726 139.2210865 200.55487562 133.57579283 203 128 C202.34 128.33 201.68 128.66 201 129 C198.39549789 129.35020989 195.79990668 129.66046125 193.1875 129.9375 C182.07092159 131.12671537 171.0683008 132.9724433 160.05053711 134.8527832 C128.64744528 140.2006085 128.64744528 140.2006085 119 140 C120.24529383 133.83495023 121.89056168 127.9475274 123.94921875 122.0078125 C124.23854279 121.16081284 124.52786682 120.31381317 124.82595825 119.44114685 C125.77498489 116.66741838 126.73108563 113.89618888 127.6875 111.125 C128.3586134 109.16929112 129.02942535 107.21347877 129.69995117 105.25756836 C135.28291117 88.99450836 140.9439535 72.7584767 146.6230011 56.52876282 C150.43311278 45.6396792 154.20672509 34.73857166 157.94458008 23.82446289 C163.52356979 7.57187116 163.52356979 7.57187116 166 3 C195.58605376 11.98148061 221.88460266 30.08366513 244.5234375 50.74609375 C246.20252205 52.2742196 247.89580823 53.78685858 249.6015625 55.28515625 C254.8401235 59.89857175 259.54508362 64.63320308 264 70 C264.75925781 70.88300781 265.51851562 71.76601563 266.30078125 72.67578125 C287.60485166 97.69066952 303.78135916 126.76566385 314 158 C314.34321289 159.03060547 314.34321289 159.03060547 314.69335938 160.08203125 C316.40373441 165.32851889 317.7700106 170.62184938 319 176 C319.22993652 176.9914502 319.45987305 177.98290039 319.69677734 179.00439453 C326.46232396 209.4882894 327.51187457 244.96582315 320.8125 275.5625 C320.59182861 276.58843262 320.37115723 277.61436523 320.14379883 278.67138672 C312.34272483 314.05843264 299.19614248 346.47104748 278 376 C277.53319824 376.6506543 277.06639648 377.30130859 276.58544922 377.97167969 C270.63702712 386.16491505 264.018747 393.71526641 257 401 C256.36642578 401.66080566 255.73285156 402.32161133 255.08007812 403.00244141 C246.44797547 411.95916665 237.71723321 420.41653604 227.67089844 427.7734375 C226.01828746 428.98657566 224.38775631 430.22538912 222.7578125 431.46875 C201.34957875 447.54240012 177.16055301 458.33227426 152 467 C150.87464844 467.40089844 149.74929688 467.80179688 148.58984375 468.21484375 C141.44634507 470.60882918 134.12038573 472.1146345 126.75 473.625 C125.75057373 473.8314917 124.75114746 474.0379834 123.72143555 474.25073242 C108.77560758 477.19538718 94.07903833 478.38297797 78.875 478.3125 C77.67026535 478.31026428 77.67026535 478.31026428 76.44119263 478.3079834 C63.9676771 478.26658677 51.78230527 477.62966742 39.4765625 475.43994141 C37.06169689 475.01095996 34.64290699 474.63401424 32.21875 474.26171875 C-11.21755365 467.082385 -54.12448905 445.11140824 -86 415 C-87.30794571 413.86970833 -88.62036248 412.74456689 -89.9375 411.625 C-98.85455476 403.82257708 -106.68504701 395.30760275 -114 386 C-115.11568359 384.66195312 -115.11568359 384.66195312 -116.25390625 383.296875 C-141.39191677 352.31955725 -156.54642802 313.89724539 -164 275 C-164.23203125 273.8140625 -164.4640625 272.628125 -164.703125 271.40625 C-167.08713826 258.19200507 -167.21435168 244.9257061 -167.24023438 231.54003906 C-167.24989008 228.53421819 -167.28097554 225.52909739 -167.3125 222.5234375 C-167.40597043 205.60702742 -165.52176656 189.39026365 -161.25 173 C-160.98960937 171.99348389 -160.72921875 170.98696777 -160.4609375 169.94995117 C-153.53474859 143.82214034 -142.40658705 118.29146535 -127 96 C-126.59861816 95.40767578 -126.19723633 94.81535156 -125.78369141 94.20507812 C-120.11240097 85.85873544 -113.9279423 78.0487746 -107.27880859 70.46240234 C-106.11931567 69.13644537 -104.97478054 67.79744529 -103.83203125 66.45703125 C-92.38291433 53.28947276 -79.11940793 42.17989377 -65 32 C-64.38721191 31.5570459 -63.77442383 31.1140918 -63.14306641 30.65771484 C-20.21284335 0 -20.21284335 0 0 0 Z " fill="#FDFDFD" transform="translate(432,196)"/>
<path d="M0 0 C7.26 0 14.52 0 22 0 C17.51652882 9.17493845 12.78383784 18.00422376 7.5 26.75 C6.08708564 29.10903217 4.67834152 31.47054642 3.26953125 33.83203125 C2.73674309 34.72372765 2.73674309 34.72372765 2.19319153 35.63343811 C-7.90369178 52.55017003 -17.57593127 69.70102452 -27 87 C-34.26 87 -41.52 87 -49 87 C-47.53158013 83.32895032 -46.07412658 80.16308198 -44.1640625 76.74609375 C-43.60058105 75.73708008 -43.03709961 74.72806641 -42.45654297 73.68847656 C-41.85213379 72.6156543 -41.24772461 71.54283203 -40.625 70.4375 C-39.99867676 69.32213867 -39.37235352 68.20677734 -38.72705078 67.05761719 C-34.40918283 59.40495266 -29.96177379 51.8425862 -25.4074707 44.32885742 C-16.58978064 29.75801005 -8.32910825 14.85357639 0 0 Z " fill="#F9F9F8" transform="translate(360,748)"/>
<path d="M0 0 C0 5.28 0 10.56 0 16 C-1.953125 16.84635417 -3.90625 17.69270833 -5.859375 18.5390625 C-8.89720688 20.61232732 -10.21179865 22.78403846 -12 26 C-12.3955378 28.86126793 -12.58575512 31.32646545 -12.56640625 34.1796875 C-12.57260483 34.95128204 -12.57880341 35.72287659 -12.58518982 36.51785278 C-12.59226349 38.14323675 -12.5891569 39.76869355 -12.57641602 41.39404297 C-12.56257443 43.86173068 -12.59662062 46.32560212 -12.63476562 48.79296875 C-12.80340742 59.21010996 -12.80340742 59.21010996 -8.75756836 68.59423828 C-6.35353784 70.64506256 -6.35353784 70.64506256 0 73 C0 78.28 0 83.56 0 89 C-10.68866007 89 -16.66645957 85.79962738 -24.67578125 78.90234375 C-32.60278989 69.00357498 -32.81813343 59.06629759 -32.70678711 46.88500977 C-32.68755573 44.07065619 -32.72704399 41.2612507 -32.77148438 38.44726562 C-32.82403219 27.1278416 -32.15932541 17.84614143 -24.22436523 9.02636719 C-17.25908641 2.37899683 -9.44173499 0 0 0 Z " fill="#FAFAF9" transform="translate(498,747)"/>
<path d="M0 0 C6.6 0 13.2 0 20 0 C20 28.71 20 57.42 20 87 C13.4 87 6.8 87 0 87 C0 58.29 0 29.58 0 0 Z " fill="#F4F5F4" transform="translate(707,748)"/>
<path d="M0 0 C6.6 0 13.2 0 20 0 C20 28.71 20 57.42 20 87 C13.4 87 6.8 87 0 87 C0 58.29 0 29.58 0 0 Z " fill="#F6F6F5" transform="translate(394,748)"/>
<path d="M0 0 C6.27 0 12.54 0 19 0 C19.01458252 1.8164502 19.02916504 3.63290039 19.04418945 5.50439453 C19.09592656 11.51955825 19.16123535 17.5344476 19.23571491 23.54936409 C19.28035957 27.19467057 19.31962825 30.83986681 19.34643555 34.48535156 C19.37252811 38.00634237 19.41297142 41.52690763 19.46318626 45.04763412 C19.48788358 47.03826001 19.49788447 49.02905075 19.50764465 51.01980591 C19.53733589 52.85102493 19.53733589 52.85102493 19.56762695 54.71923828 C19.57873001 55.78957306 19.58983307 56.85990784 19.60127258 57.962677 C20.17828894 62.35812356 21.68603409 65.77080609 24.9375 68.8125 C27.21071759 70.24667759 27.21071759 70.24667759 31 71 C31 76.61 31 82.22 31 88 C22.40714684 87.58421678 15.68029516 85.20025666 9.125 79.5 C8.073125 78.2625 8.073125 78.2625 7 77 C6.29875 76.21625 5.5975 75.4325 4.875 74.625 C-0.75697568 66.74023405 -0.40053836 59.53275327 -0.29296875 50.09765625 C-0.287366 48.65034934 -0.28309911 47.2030367 -0.28010559 45.75572205 C-0.26871009 41.96625768 -0.23928949 38.17714416 -0.20599365 34.38781738 C-0.17517775 30.51315048 -0.16157577 26.63842629 -0.14648438 22.76367188 C-0.1144138 15.1756036 -0.06169021 7.58789587 0 0 Z " fill="#FCFCFB" transform="translate(547,748)"/>
<path d="M0 0 C6.27 0 12.54 0 19 0 C19.06796842 8.20640298 19.12292651 16.4125845 19.15543652 24.61919403 C19.17104525 28.43048114 19.1921949 32.2415645 19.22631836 36.05273438 C19.2590842 39.73562096 19.276889 43.41831244 19.28463173 47.10133362 C19.29014453 48.50146045 19.30090926 49.90157746 19.31719017 51.30162048 C19.45410694 63.57136966 17.99915587 70.71239931 9.40234375 79.796875 C3.5295582 85.18264907 -4.02611547 88 -12 88 C-12 82.39 -12 76.78 -12 71 C-9.69 70.01 -7.38 69.02 -5 68 C-3.08255407 65.55690423 -3.08255407 65.55690423 -2 63 C-1.67 62.34 -1.34 61.68 -1 61 C-0.87994453 59.06028622 -0.82266656 57.11656384 -0.79467773 55.17333984 C-0.77473251 53.95222504 -0.75478729 52.73111023 -0.73423767 51.47299194 C-0.71725344 50.13564177 -0.70037463 48.79829025 -0.68359375 47.4609375 C-0.66302397 46.09615447 -0.64202749 44.73137782 -0.62062073 43.36660767 C-0.56540241 39.77292027 -0.51599213 36.1791754 -0.46777344 32.58538818 C-0.41755663 28.91885254 -0.36187151 25.25240044 -0.30664062 21.5859375 C-0.19906197 14.39069375 -0.09812169 7.19538007 0 0 Z " fill="#FBFCFB" transform="translate(596,748)"/>
<path d="M0 0 C6.27 0 12.54 0 19 0 C19 28.71 19 57.42 19 87 C12.73 87 6.46 87 0 87 C0 58.29 0 29.58 0 0 Z " fill="#FBFCFB" transform="translate(241,748)"/>
<path d="M0 0 C6.6 0 13.2 0 20 0 C20 21.78 20 43.56 20 66 C13.4 66 6.8 66 0 66 C0 44.22 0 22.44 0 0 Z " fill="#F5F6F5" transform="translate(651,769)"/>
<path d="M0 0 C23.1 0 46.2 0 70 0 C70 5.28 70 10.56 70 16 C46.9 16 23.8 16 0 16 C0 10.72 0 5.44 0 0 Z " fill="#F8F9F9" transform="translate(626,748)"/>
<path d="M0 0 C0.66 0 1.32 0 2 0 C2.51046875 1.17755859 2.51046875 1.17755859 3.03125 2.37890625 C8.05320028 13.26425062 13.78827324 18.82155554 25 23 C25 23.66 25 24.32 25 25 C24.21496094 25.3403125 23.42992187 25.680625 22.62109375 26.03125 C11.73574938 31.05320028 6.17844446 36.78827324 2 48 C1.34 48 0.68 48 0 48 C-0.3403125 47.21496094 -0.680625 46.42992187 -1.03125 45.62109375 C-6.05320028 34.73574938 -11.78827324 29.17844446 -23 25 C-23 24.34 -23 23.68 -23 23 C-22.21496094 22.6596875 -21.42992187 22.319375 -20.62109375 21.96875 C-9.73574938 16.94679972 -4.17844446 11.21172676 0 0 Z " fill="#7D7D7D" transform="translate(967,944)"/>
<path d="M0 0 C0.66 0 1.32 0 2 0 C2.41773682 0.72477539 2.83547363 1.44955078 3.26586914 2.19628906 C4.85172315 4.94740768 6.43785856 7.69836382 8.02416992 10.44921875 C9.03390074 12.20040015 10.04332207 13.95175998 11.05273438 15.703125 C11.70693359 16.8375 12.36113281 17.971875 13.03515625 19.140625 C14.01572998 20.8412207 14.01572998 20.8412207 15.01611328 22.57617188 C16.35642244 24.88930203 17.70177612 27.19829876 19.05810547 29.50195312 C19.6976416 30.58927734 20.33717773 31.67660156 20.99609375 32.796875 C21.57415771 33.77495117 22.15222168 34.75302734 22.74780273 35.76074219 C24 38 24 38 24 39 C16.74 39 9.48 39 2 39 C-2.375 31.1875 -2.375 31.1875 -3.74365234 28.73901367 C-4.10410645 28.09681885 -4.46456055 27.45462402 -4.8359375 26.79296875 C-5.20251465 26.1383667 -5.5690918 25.48376465 -5.94677734 24.80932617 C-6.90206799 23.16823694 -7.9466896 21.5799656 -9 20 C-8.76649517 14.74237512 -6.58699782 11.00879778 -3.9375 6.625 C-3.37192383 5.66400391 -3.37192383 5.66400391 -2.79492188 4.68359375 C-1.87160383 3.11745934 -0.93694607 1.55801966 0 0 Z " fill="#F9F9F7" transform="translate(360,796)"/>
<path d="M0 0 C9.25724218 0 16.63484239 2.33396485 23.5 8.75 C29.69263636 15.61350529 31 20.70976435 31 30 C24.73 30 18.46 30 12 30 C11.01 27.36 10.02 24.72 9 22 C5.9039559 18.9039559 4.29999563 18.07499891 0 17 C0 11.39 0 5.78 0 0 Z " fill="#FBFBFA" transform="translate(503,747)"/>
<path d="M0 0 C19.77342008 -1.63064236 19.77342008 -1.63064236 24.65625 1.9453125 C26.17971959 4.59517716 27.11277769 7.08008057 28 10 C28.79087009 11.44951268 29.60160211 12.88847851 30.4375 14.3125 C31.67883503 16.55663901 32.0199602 17.69429383 31.8515625 20.2734375 C30.70585972 23.94178859 28.89886967 27.02322548 26.9375 30.3125 C26.56044922 30.95767578 26.18339844 31.60285156 25.79492188 32.26757812 C24.86962507 33.84878152 23.93567319 35.4249146 23 37 C19.25169637 35.75056546 18.98395837 34.71684291 17.109375 31.328125 C16.56756592 30.35883057 16.02575684 29.38953613 15.4675293 28.39086914 C14.90074463 27.35438232 14.33395996 26.31789551 13.75 25.25 C13.17096924 24.2077124 12.59193848 23.1654248 11.99536133 22.09155273 C10.31916025 19.06696503 8.65648641 16.03542185 7 13 C6.57444824 12.22092285 6.14889648 11.4418457 5.71044922 10.63916016 C3.78487538 7.10432678 1.87901072 3.55987123 0 0 Z " fill="#F8F8F5" transform="translate(311,748)"/>
<path d="M0 0 C6.6 0 13.2 0 20 0 C19.64776763 8.3361662 18.13368754 14.48412237 12.39453125 20.75390625 C5.26844828 27.26032983 -1.45577931 29.46976552 -11 30 C-11 24.39 -11 18.78 -11 13 C-8.69 12.01 -6.38 11.02 -4 10 C-0.59805443 6.71145261 -0.85175108 5.1105065 0 0 Z " fill="#F9FAF8" transform="translate(514,806)"/>
<path d="M0 0 C11.88 0 23.76 0 36 0 C36 5.28 36 10.56 36 16 C24.12 16 12.24 16 0 16 C0 10.72 0 5.44 0 0 Z " fill="#F5F8F7" transform="translate(265,819)"/>
<path d="M0 0 C11.88 0 23.76 0 36 0 C36 5.28 36 10.56 36 16 C24.12 16 12.24 16 0 16 C0 10.72 0 5.44 0 0 Z " fill="#F6F7F7" transform="translate(265,748)"/>
<path d="M0 0 C11.55 0 23.1 0 35 0 C35 5.28 35 10.56 35 16 C23.45 16 11.9 16 0 16 C0 10.72 0 5.44 0 0 Z " fill="#F8FAFB" transform="translate(732,819)"/>
<path d="M0 0 C11.55 0 23.1 0 35 0 C35 5.28 35 10.56 35 16 C23.45 16 11.9 16 0 16 C0 10.72 0 5.44 0 0 Z " fill="#F9FBFA" transform="translate(419,819)"/>
<path d="M0 0 C11.55 0 23.1 0 35 0 C35 5.28 35 10.56 35 16 C23.45 16 11.9 16 0 16 C0 10.72 0 5.44 0 0 Z " fill="#F8FAFA" transform="translate(732,748)"/>
<path d="M0 0 C11.55 0 23.1 0 35 0 C35 5.28 35 10.56 35 16 C23.45 16 11.9 16 0 16 C0 10.72 0 5.44 0 0 Z " fill="#F9FAFA" transform="translate(419,748)"/>
<path d="M0 0 C10.89 0 21.78 0 33 0 C33 5.28 33 10.56 33 16 C22.11 16 11.22 16 0 16 C0 10.72 0 5.44 0 0 Z " fill="#F4F5F5" transform="translate(265,783)"/>
<path d="M0 0 C10.56 0 21.12 0 32 0 C32 5.28 32 10.56 32 16 C21.44 16 10.88 16 0 16 C0 10.72 0 5.44 0 0 Z " fill="#F7F8F8" transform="translate(732,783)"/>
<path d="M0 0 C10.56 0 21.12 0 32 0 C32 5.28 32 10.56 32 16 C21.44 16 10.88 16 0 16 C0 10.72 0 5.44 0 0 Z " fill="#F5F6F6" transform="translate(419,783)"/>
<path d="M0 0 C-1.98 2.97 -1.98 2.97 -4 6 C-4.66 5.01 -5.32 4.02 -6 3 C-8.05925139 2.27617533 -8.05925139 2.27617533 -10 2 C-8.71211992 1.46987262 -7.41953322 0.9511671 -6.125 0.4375 C-5.40570312 0.14746094 -4.68640625 -0.14257812 -3.9453125 -0.44140625 C-2 -1 -2 -1 0 0 Z " fill="#343535" transform="translate(592,530)"/>
</svg>
